<svg xmlns="http://www.w3.org/2000/svg" viewBox="0 0 1049.1 327.7" width="1049.1" height="327.7"><g transform="translate(20,107.70301828397616)"><path d="M0.0 200.0V0.0H46.5Q71.75 0.0 83.0 10.1875Q94.25 20.375 95.0 43.75Q95.25 52.25 95.375 58.875Q95.5 65.5 95.375 71.8125Q95.25 78.125 95.0 86.0Q94.5 100.875 89.875 110.25Q85.25 119.625 75.5 124.5L98.0 200.0H64.0L45.25 129.75H32.125V200.0ZM32.125 101.375H46.5Q54.75 101.375 58.625 97.875Q62.5 94.375 62.875 87.625Q63.25 80.0 63.375 72.4375Q63.5 64.875 63.375 57.375Q63.25 49.875 62.875 42.25Q62.5 35.25 58.625 31.8125Q54.75 28.375 46.5 28.375H32.125Z" fill="#FFFFFF"/><path d="M354.5 202.25Q328.75 202.25 317.3125 191.75Q305.875 181.25 304.875 156.75Q304.75 151.875 304.75 146.625Q304.75 141.375 305.0 136.125Q305.25 130.875 305.75 125.75H336.0Q335.5 135.5 335.4375 144.8125Q335.375 154.125 336.0 162.375Q336.625 169.25 341.125 172.5625Q345.625 175.875 354.375 175.875Q362.75 175.875 367.0625 172.5625Q371.375 169.25 372.125 162.375Q372.625 157.75 372.75 152.9375Q372.875 148.125 372.6875 143.3125Q372.5 138.5 372.125 133.875Q371.625 127.25 367.8125 122.6875Q364.0 118.125 357.25 116.5L337.125 111.875Q324.875 109.0 317.8125 103.125Q310.75 97.25 307.625 88.125Q304.5 79.0 304.125 66.5Q304.0 60.25 304.0 54.5625Q304.0 48.875 304.125 43.0Q304.75 26.75 310.0625 16.8125Q315.375 6.875 326.1875 2.3125Q337.0 -2.25 354.375 -2.25Q379.75 -2.25 391.125 8.1875Q402.5 18.625 403.375 43.0Q403.625 49.125 403.5 57.375Q403.375 65.625 403.0 73.25H372.125Q372.5 63.875 372.625 55.0Q372.75 46.125 372.375 37.375Q372.125 30.625 367.625 27.375Q363.125 24.125 354.375 24.125Q345.875 24.125 341.4375 27.375Q337.0 30.625 336.25 37.375Q335.625 44.75 335.625 51.9375Q335.625 59.125 336.25 66.5Q336.75 73.25 339.625 77.75Q342.5 82.25 349.0 83.625L367.0 87.5Q380.25 90.5 388.3125 96.5625Q396.375 102.625 400.125 111.9375Q403.875 121.25 404.375 133.875Q404.5 137.5 404.5 141.4375Q404.5 145.375 404.4375 149.25Q404.375 153.125 404.125 156.75Q403.125 181.25 391.625 191.75Q380.125 202.25 354.5 202.25Z" fill="#FFFFFF"/><path d="M201.00,-55.87 L292.00,1.00 L292.00,-30.84 L201.00,-87.70 L110.00,-30.84 L110.00,1.00 Z M126.00,0.00 L126.00,200.00 L158.10,200.00 L158.10,-20.06 Z M243.90,200.00 L276.00,200.00 L276.00,0.00 L243.90,-20.06 Z" fill="#F28C28" fill-rule="evenodd"/><path d="M213.44,85.39 L212.95,84.50 L212.43,83.63 L211.88,82.78 L211.30,81.94 L210.69,81.13 L210.06,80.33 L209.41,79.56 L208.73,78.81 L208.02,78.08 L207.29,77.37 L206.54,76.69 L205.77,76.04 L204.97,75.41 L204.16,74.80 L203.32,74.22 L202.47,73.67 L201.60,73.15 L200.71,72.66 L199.81,72.20 L198.89,71.76 L197.96,71.36 L197.02,70.99 L196.06,70.65 L195.10,70.33 L194.12,70.06 L193.14,69.81 L192.15,69.60 L191.15,69.41 L190.15,69.27 L189.14,69.15 L188.13,69.07 L187.11,69.02 L186.10,69.00 L185.09,69.02 L184.07,69.07 L183.06,69.15 L182.05,69.27 L181.05,69.41 L180.05,69.60 L179.06,69.81 L178.08,70.06 L177.10,70.33 L176.14,70.65 L175.18,70.99 L174.24,71.36 L173.31,71.76 L172.39,72.20 L171.49,72.66 L170.60,73.15 L169.73,73.67 L168.88,74.22 L168.04,74.80 L167.23,75.41 L166.43,76.04 L165.66,76.69 L164.91,77.37 L164.18,78.08 L163.47,78.81 L162.79,79.56 L162.14,80.33 L161.51,81.13 L160.90,81.94 L160.32,82.78 L159.77,83.63 L159.25,84.50 L158.76,85.39 L158.30,86.29 L157.86,87.21 L157.46,88.14 L157.12,89.00 L186.10,89.00 L186.10,111.00 L157.12,111.00 L157.46,111.86 L157.86,112.79 L158.30,113.71 L158.76,114.61 L159.25,115.50 L159.77,116.37 L160.32,117.22 L160.90,118.06 L161.51,118.87 L162.14,119.67 L162.79,120.44 L163.47,121.19 L164.18,121.92 L164.91,122.63 L165.66,123.31 L166.43,123.96 L167.23,124.59 L168.04,125.20 L168.88,125.78 L169.73,126.33 L170.60,126.85 L171.49,127.34 L172.39,127.80 L173.31,128.24 L174.24,128.64 L175.18,129.01 L176.14,129.35 L177.10,129.67 L178.08,129.94 L179.06,130.19 L180.05,130.40 L181.05,130.59 L182.05,130.73 L183.06,130.85 L184.07,130.93 L185.09,130.98 L186.10,131.00 L187.11,130.98 L188.13,130.93 L189.14,130.85 L190.15,130.73 L191.15,130.59 L192.15,130.40 L193.14,130.19 L194.12,129.94 L195.10,129.67 L196.06,129.35 L197.02,129.01 L197.96,128.64 L198.89,128.24 L199.81,127.80 L200.71,127.34 L201.60,126.85 L202.47,126.33 L203.32,125.78 L204.16,125.20 L204.97,124.59 L205.77,123.96 L206.54,123.31 L207.29,122.63 L208.02,121.92 L208.73,121.19 L209.41,120.44 L210.06,119.67 L210.69,118.87 L211.30,118.06 L211.88,117.22 L212.43,116.37 L212.95,115.50 L213.44,114.61 L213.75,114.00 L245.40,114.00 L245.40,86.00 L213.75,86.00 Z" fill="#F28C28" fill-rule="evenodd"/><path d="M456.38 45.24849085801191V-44.351509141988096H477.212Q488.524 -44.351509141988096 493.56399999999996 -39.787509141988096Q498.604 -35.223509141988096 498.94 -24.751509141988087Q499.052 -20.943509141988095 499.108 -17.97550914198809Q499.164 -15.007509141988088 499.108 -12.179509141988088Q499.052 -9.351509141988089 498.94 -5.82350914198809Q498.716 0.8404908580119113 496.644 5.0404908580119105Q494.572 9.24049085801191 490.204 11.424490858011914L500.284 45.24849085801191H485.052L476.652 13.776490858011911H470.772V45.24849085801191ZM470.772 1.064490858011915H477.212Q480.908 1.064490858011915 482.644 -0.5035091419880864Q484.38 -2.0715091419880878 484.548 -5.095509141988089Q484.716 -8.511509141988086 484.772 -11.899509141988087Q484.828 -15.287509141988089 484.772 -18.64750914198809Q484.716 -22.007509141988088 484.548 -25.423509141988085Q484.38 -28.559509141988094 482.644 -30.099509141988094Q480.908 -31.639509141988093 477.212 -31.639509141988093H470.772Z M509.412 45.24849085801191V-44.351509141988096H523.804V45.24849085801191Z M546.764 45.24849085801191V16.408490858011913H544.7479999999999L530.9159999999999 -44.351509141988096H545.588L550.124 -21.559509141988094L552.3639999999999 4.592490858011914H555.5559999999999L557.74 -21.559509141988094L562.276 -44.351509141988096H577.004L563.004 16.408490858011913H561.156V45.24849085801191Z M580.476 45.24849085801191 592.068 -44.351509141988096H617.436L629.028 45.24849085801191H614.244L612.228 24.528490858011914H597.276L595.26 45.24849085801191ZM598.62 11.81649085801191H610.9399999999999L608.98 -7.783509141988091L607.3 -31.639509141988093H602.204L600.524 -7.727509141988087Z M637.148 45.24849085801191V-44.351509141988096H658.82Q670.3000000000001 -44.351509141988096 675.3960000000001 -39.56350914198809Q680.4920000000001 -34.77550914198809 680.716 -23.79950914198809Q680.884 -15.175509141988087 680.94 -7.363509141988089Q680.996 0.44849085801190824 680.94 8.20449085801191Q680.884 15.960490858011912 680.716 24.640490858011912Q680.4920000000001 35.616490858011915 675.424 40.43249085801192Q670.356 45.24849085801191 658.988 45.24849085801191ZM651.5400000000001 32.536490858011916H658.988Q662.6840000000001 32.536490858011916 664.4760000000001 30.968490858011915Q666.268 29.400490858011914 666.3240000000001 26.26449085801191Q666.4920000000001 19.48849085801191 666.576 13.07649085801191Q666.6600000000001 6.664490858011909 666.6600000000001 0.39249085801191086Q666.6600000000001 -5.879509141988088 666.576 -12.291509141988087Q666.4920000000001 -18.703509141988086 666.3240000000001 -25.423509141988085Q666.268 -28.559509141988094 664.4480000000001 -30.099509141988094Q662.628 -31.639509141988093 658.82 -31.639509141988093H651.5400000000001Z M691.692 45.24849085801191V-44.351509141988096H706.0840000000001V-6.551509141988092H720.7V-44.351509141988096H735.092V45.24849085801191H720.7V6.1604908580119115H706.0840000000001V45.24849085801191Z M771.044 45.24849085801191V-44.351509141988096H785.436V-6.551509141988092H800.052V-44.351509141988096H814.444V45.24849085801191H800.052V6.1604908580119115H785.436V45.24849085801191Z M847.8199999999999 46.256490858011915Q836.06 46.256490858011915 830.852 41.49649085801191Q825.644 36.73649085801191 825.42 25.760490858011913Q825.308 18.81649085801191 825.252 12.57249085801191Q825.1959999999999 6.328490858011911 825.1959999999999 0.3364908580119099Q825.1959999999999 -5.655509141988091 825.252 -11.871509141988088Q825.308 -18.087509141988086 825.42 -24.919509141988094Q825.644 -35.89550914198809 830.852 -40.62750914198809Q836.06 -45.35950914198809 847.8199999999999 -45.35950914198809Q859.468 -45.35950914198809 864.6479999999999 -40.62750914198809Q869.828 -35.89550914198809 870.164 -24.919509141988094Q870.3879999999999 -18.087509141988086 870.5 -11.871509141988088Q870.612 -5.655509141988091 870.612 0.39249085801191086Q870.612 6.440490858011913 870.5 12.656490858011912Q870.3879999999999 18.87249085801191 870.164 25.760490858011913Q869.828 36.73649085801191 864.6479999999999 41.49649085801191Q859.468 46.256490858011915 847.8199999999999 46.256490858011915ZM847.8199999999999 34.44049085801191Q852.0759999999999 34.44049085801191 853.896 32.64849085801191Q855.716 30.856490858011913 855.7719999999999 26.600490858011913Q856.0519999999999 19.71249085801191 856.192 13.244490858011911Q856.332 6.776490858011911 856.332 0.42049085801190955Q856.332 -5.935509141988092 856.192 -12.43150914198809Q856.0519999999999 -18.92750914198809 855.7719999999999 -25.759509141988083Q855.716 -30.015509141988083 853.896 -31.779509141988086Q852.0759999999999 -33.54350914198809 847.8199999999999 -33.54350914198809Q843.62 -33.54350914198809 841.7719999999999 -31.779509141988086Q839.924 -30.015509141988083 839.8119999999999 -25.759509141988083Q839.5319999999999 -18.983509141988087 839.42 -12.515509141988087Q839.308 -6.047509141988087 839.308 0.30849085801191123Q839.308 6.664490858011909 839.42 13.16049085801191Q839.5319999999999 19.65649085801191 839.8119999999999 26.600490858011913Q839.924 30.856490858011913 841.7719999999999 32.64849085801191Q843.62 34.44049085801191 847.8199999999999 34.44049085801191Z M881.3639999999999 45.24849085801191V-44.351509141988096H908.132L914.852 -9.575509141988086L916.9799999999999 32.424490858011914H921.348L923.3639999999999 -9.575509141988086L930.1959999999999 -44.351509141988096H956.8519999999999V45.24849085801191H942.068V17.58449085801191L944.6439999999999 -31.639509141988093H939.7159999999999L934.6759999999999 19.04049085801191L928.1239999999999 45.13649085801191H909.6439999999999L903.6519999999999 19.04049085801191L898.5559999999999 -31.639509141988093H893.684L896.204 17.58449085801191V45.24849085801191Z M968.612 45.24849085801191V-44.351509141988096H1006.02V-31.639509141988093H983.004V-6.551509141988092H1004.9V6.1604908580119115H983.004V32.536490858011916H1006.02V45.24849085801191Z" fill="#FFFFFF"/><path d="M464.275 114.17049085801192Q458.301 114.17049085801192 455.64750000000004 111.73449085801192Q452.994 109.29849085801192 452.762 103.6144908580119Q452.733 102.4834908580119 452.733 101.2654908580119Q452.733 100.04749085801191 452.791 98.82949085801191Q452.849 97.6114908580119 452.965 96.42249085801191H459.983Q459.867 98.68449085801191 459.8525 100.84499085801191Q459.838 103.00549085801191 459.983 104.91949085801191Q460.128 106.51449085801191 461.172 107.28299085801191Q462.216 108.05149085801192 464.246 108.05149085801192Q466.189 108.05149085801192 467.1895 107.28299085801191Q468.19 106.51449085801191 468.364 104.91949085801191Q468.48 103.8464908580119 468.509 102.72999085801192Q468.538 101.61349085801191 468.4945 100.49699085801191Q468.451 99.38049085801191 468.364 98.3074908580119Q468.248 96.77049085801191 467.3635 95.71199085801192Q466.479 94.6534908580119 464.913 94.27649085801191L460.244 93.20349085801192Q457.402 92.53649085801192 455.7635 91.17349085801192Q454.125 89.81049085801192 453.4 87.69349085801191Q452.675 85.57649085801191 452.588 82.6764908580119Q452.559 81.22649085801191 452.559 79.90699085801191Q452.559 78.5874908580119 452.588 77.2244908580119Q452.733 73.45449085801191 453.9655 71.1489908580119Q455.198 68.8434908580119 457.7065 67.78499085801191Q460.215 66.72649085801191 464.246 66.72649085801191Q470.133 66.72649085801191 472.772 69.14799085801191Q475.411 71.5694908580119 475.614 77.2244908580119Q475.672 78.64549085801191 475.64300000000003 80.55949085801191Q475.614 82.47349085801191 475.527 84.2424908580119H468.364Q468.451 82.06749085801191 468.48 80.0084908580119Q468.509 77.9494908580119 468.422 75.91949085801191Q468.364 74.35349085801191 467.32 73.5994908580119Q466.276 72.84549085801191 464.246 72.84549085801191Q462.274 72.84549085801191 461.2445 73.5994908580119Q460.215 74.35349085801191 460.041 75.91949085801191Q459.896 77.63049085801191 459.896 79.29799085801191Q459.896 80.96549085801192 460.041 82.6764908580119Q460.157 84.2424908580119 460.82399999999996 85.28649085801192Q461.491 86.33049085801191 462.999 86.64949085801192L467.175 87.54849085801192Q470.249 88.24449085801191 472.1195 89.65099085801191Q473.99 91.0574908580119 474.86 93.21799085801192Q475.73 95.37849085801192 475.846 98.3074908580119Q475.875 99.14849085801191 475.875 100.06199085801191Q475.875 100.97549085801191 475.8605 101.87449085801191Q475.846 102.77349085801191 475.788 103.6144908580119Q475.556 109.29849085801192 472.88800000000003 111.73449085801192Q470.22 114.17049085801192 464.275 114.17049085801192Z M507.253 114.17049085801192Q501.163 114.17049085801192 498.466 111.70549085801191Q495.769 109.24049085801191 495.653 103.55649085801191Q495.595 99.96049085801191 495.56600000000003 96.7269908580119Q495.53700000000003 93.49349085801191 495.53700000000003 90.3904908580119Q495.53700000000003 87.2874908580119 495.56600000000003 84.0684908580119Q495.595 80.8494908580119 495.653 77.31149085801191Q495.769 71.62749085801191 498.466 69.17699085801192Q501.163 66.72649085801191 507.253 66.72649085801191Q513.285 66.72649085801191 515.9675 69.17699085801192Q518.65 71.62749085801191 518.8240000000001 77.31149085801191Q518.94 80.8494908580119 518.998 84.0684908580119Q519.056 87.2874908580119 519.056 90.4194908580119Q519.056 93.5514908580119 518.998 96.7704908580119Q518.94 99.9894908580119 518.8240000000001 103.55649085801191Q518.65 109.24049085801191 515.9675 111.70549085801191Q513.285 114.17049085801192 507.253 114.17049085801192ZM507.253 108.05149085801192Q509.457 108.05149085801192 510.3995 107.1234908580119Q511.342 106.19549085801191 511.371 103.99149085801191Q511.516 100.42449085801191 511.5885 97.07499085801192Q511.661 93.72549085801191 511.661 90.43399085801191Q511.661 87.14249085801191 511.5885 83.7784908580119Q511.516 80.4144908580119 511.371 76.87649085801192Q511.342 74.67249085801191 510.3995 73.75899085801191Q509.457 72.84549085801191 507.253 72.84549085801191Q505.07800000000003 72.84549085801191 504.121 73.75899085801191Q503.164 74.67249085801191 503.106 76.87649085801192Q502.961 80.3854908580119 502.903 83.73499085801191Q502.845 87.08449085801192 502.845 90.37599085801192Q502.845 93.66749085801192 502.903 97.03149085801192Q502.961 100.39549085801191 503.106 103.99149085801191Q503.164 106.19549085801191 504.121 107.1234908580119Q505.07800000000003 108.05149085801192 507.253 108.05149085801192Z M539.704 113.64849085801191V67.2484908580119H547.157V107.06549085801191H558.351V113.64849085801191Z M588.308 114.17049085801192Q582.16 114.17049085801192 579.4775 111.73449085801192Q576.795 109.29849085801192 576.708 103.64349085801192Q576.592 94.59549085801191 576.592 85.44599085801191Q576.592 76.29649085801191 576.708 67.2484908580119H584.161Q584.074 73.28049085801192 584.045 79.58799085801192Q584.016 85.89549085801191 584.0595 92.1884908580119Q584.103 98.48149085801191 584.161 104.54249085801192Q584.161 106.25349085801192 585.1759999999999 107.1379908580119Q586.1909999999999 108.0224908580119 588.308 108.0224908580119Q590.367 108.0224908580119 591.382 107.1379908580119Q592.3969999999999 106.25349085801192 592.3969999999999 104.54249085801192Q592.4259999999999 98.48149085801191 592.4694999999999 92.1884908580119Q592.5129999999999 85.89549085801191 592.4984999999999 79.58799085801192Q592.4839999999999 73.28049085801192 592.3969999999999 67.2484908580119H599.8499999999999Q599.966 76.29649085801191 599.9805 85.44599085801191Q599.995 94.59549085801191 599.8499999999999 103.64349085801192Q599.7629999999999 109.29849085801192 597.0949999999999 111.73449085801192Q594.4269999999999 114.17049085801192 588.308 114.17049085801192Z M625.602 113.64849085801191V73.8314908580119H617.8879999999999V67.2484908580119H640.711V73.8314908580119H633.026V113.64849085801191Z M659.184 113.64849085801191V67.2484908580119H666.6370000000001V113.64849085801191Z M699.0010000000001 114.17049085801192Q692.9110000000001 114.17049085801192 690.214 111.70549085801191Q687.517 109.24049085801191 687.4010000000001 103.55649085801191Q687.3430000000001 99.96049085801191 687.3140000000001 96.7269908580119Q687.2850000000001 93.49349085801191 687.2850000000001 90.3904908580119Q687.2850000000001 87.2874908580119 687.3140000000001 84.0684908580119Q687.3430000000001 80.8494908580119 687.4010000000001 77.31149085801191Q687.517 71.62749085801191 690.214 69.17699085801192Q692.9110000000001 66.72649085801191 699.0010000000001 66.72649085801191Q705.033 66.72649085801191 707.7155 69.17699085801192Q710.398 71.62749085801191 710.5720000000001 77.31149085801191Q710.6880000000001 80.8494908580119 710.7460000000001 84.0684908580119Q710.8040000000001 87.2874908580119 710.8040000000001 90.4194908580119Q710.8040000000001 93.5514908580119 710.7460000000001 96.7704908580119Q710.6880000000001 99.9894908580119 710.5720000000001 103.55649085801191Q710.398 109.24049085801191 707.7155 111.70549085801191Q705.033 114.17049085801192 699.0010000000001 114.17049085801192ZM699.0010000000001 108.05149085801192Q701.205 108.05149085801192 702.1475 107.1234908580119Q703.09 106.19549085801191 703.119 103.99149085801191Q703.264 100.42449085801191 703.3365000000001 97.07499085801192Q703.4090000000001 93.72549085801191 703.4090000000001 90.43399085801191Q703.4090000000001 87.14249085801191 703.3365000000001 83.7784908580119Q703.264 80.4144908580119 703.119 76.87649085801192Q703.09 74.67249085801191 702.1475 73.75899085801191Q701.205 72.84549085801191 699.0010000000001 72.84549085801191Q696.826 72.84549085801191 695.869 73.75899085801191Q694.912 74.67249085801191 694.854 76.87649085801192Q694.7090000000001 80.3854908580119 694.6510000000001 83.73499085801191Q694.5930000000001 87.08449085801192 694.5930000000001 90.37599085801192Q694.5930000000001 93.66749085801192 694.6510000000001 97.03149085801192Q694.7090000000001 100.39549085801191 694.854 103.99149085801191Q694.912 106.19549085801191 695.869 107.1234908580119Q696.826 108.05149085801192 699.0010000000001 108.05149085801192Z M731.452 113.64849085801191V67.2484908580119H744.154L747.373 82.0094908580119L750.7660000000001 107.06549085801191H753.318L752.013 86.09849085801191L751.433 67.2484908580119H758.9150000000001V113.64849085801191H745.633L742.356 98.01749085801191L739.717 73.77349085801191H737.0780000000001L738.296 95.98749085801191L738.9050000000001 113.64849085801191Z" fill="#F28C28"/><path d="M455.012 152.4804908580119V149.5524908580119H458.66Q459.356 149.5524908580119 459.932 149.26449085801192Q460.508 148.9764908580119 460.844 148.4244908580119Q461.18 147.8724908580119 461.18 147.0804908580119Q461.18 146.3124908580119 460.844 145.7604908580119Q460.508 145.2084908580119 459.932 144.92049085801193Q459.356 144.63249085801192 458.66 144.63249085801192H455.012V141.70449085801192H459.212Q460.82 141.70449085801192 462.116 142.35249085801192Q463.412 143.00049085801191 464.168 144.2124908580119Q464.924 145.42449085801192 464.924 147.0804908580119Q464.924 148.7364908580119 464.168 149.9484908580119Q463.412 151.1604908580119 462.116 151.8204908580119Q460.82 152.4804908580119 459.212 152.4804908580119ZM452.132 158.6484908580119V141.70449085801192H455.9V158.6484908580119Z M472.94232258064517 158.6484908580119V141.70449085801192H476.71032258064514V158.6484908580119ZM475.84632258064516 158.6484908580119V155.3364908580119H484.22232258064514V158.6484908580119Z M498.9606451612903 158.91249085801192Q496.87264516129034 158.91249085801192 495.27664516129033 158.02449085801192Q493.68064516129033 157.1364908580119 492.7806451612903 155.5644908580119Q491.8806451612903 153.9924908580119 491.8806451612903 151.9764908580119V141.70449085801192H495.67264516129035V152.19249085801192Q495.67264516129035 153.2004908580119 496.10464516129036 153.9444908580119Q496.5366451612903 154.6884908580119 497.29264516129035 155.08449085801192Q498.0486451612903 155.4804908580119 498.9606451612903 155.4804908580119Q499.92064516129034 155.4804908580119 500.6406451612903 155.08449085801192Q501.36064516129034 154.6884908580119 501.7806451612903 153.9564908580119Q502.2006451612903 153.2244908580119 502.2006451612903 152.21649085801192V141.70449085801192H505.99264516129034V152.00049085801191Q505.99264516129034 154.0164908580119 505.10464516129036 155.5764908580119Q504.21664516129033 157.1364908580119 502.6326451612903 158.02449085801192Q501.0486451612903 158.91249085801192 498.9606451612903 158.91249085801192Z M514.7309677419354 158.6484908580119V141.70449085801192H517.4189677419355L524.0909677419354 152.09649085801192H522.7229677419355L529.3709677419355 141.70449085801192H532.0829677419355V158.6484908580119H528.3149677419354V148.0644908580119L528.9869677419355 148.23249085801191L524.6429677419354 155.00049085801191H522.1469677419354L517.8269677419354 148.23249085801191L518.4749677419354 148.0644908580119V158.6484908580119Z M543.9412903225807 158.6484908580119V155.7204908580119H547.9252903225806Q549.0292903225807 155.7204908580119 549.6532903225807 155.07249085801192Q550.2772903225806 154.42449085801192 550.2772903225806 153.48849085801191Q550.2772903225806 152.84049085801192 549.9892903225807 152.33649085801193Q549.7012903225807 151.8324908580119 549.1852903225806 151.5444908580119Q548.6692903225807 151.25649085801192 547.9252903225806 151.25649085801192H543.9412903225807V148.40049085801192H547.6132903225806Q548.5492903225806 148.40049085801192 549.1252903225807 147.93249085801193Q549.7012903225807 147.4644908580119 549.7012903225807 146.5044908580119Q549.7012903225807 145.5684908580119 549.1252903225807 145.1004908580119Q548.5492903225806 144.63249085801192 547.6132903225806 144.63249085801192H543.9412903225807V141.70449085801192H548.3332903225806Q549.9652903225806 141.70449085801192 551.1052903225807 142.30449085801192Q552.2452903225807 142.9044908580119 552.8452903225807 143.9124908580119Q553.4452903225806 144.9204908580119 553.4452903225806 146.14449085801192Q553.4452903225806 147.70449085801192 552.4372903225806 148.7844908580119Q551.4292903225806 149.86449085801192 549.4612903225807 150.2724908580119L549.5572903225807 149.00049085801191Q551.6932903225807 149.4084908580119 552.8572903225806 150.65649085801192Q554.0212903225806 151.9044908580119 554.0212903225806 153.72849085801192Q554.0212903225806 155.12049085801192 553.3372903225807 156.2364908580119Q552.6532903225807 157.35249085801192 551.3692903225806 158.00049085801191Q550.0852903225806 158.6484908580119 548.2852903225806 158.6484908580119ZM541.0612903225806 158.6484908580119V141.70449085801192H544.7812903225806V158.6484908580119Z M562.1836129032257 158.6484908580119V141.70449085801192H565.9516129032257V158.6484908580119Z M574.9539354838709 158.6484908580119V141.70449085801192H577.593935483871L578.7219354838709 145.0884908580119V158.6484908580119ZM586.641935483871 158.6484908580119 576.6579354838709 145.8564908580119 577.593935483871 141.70449085801192 587.5779354838709 154.49649085801192ZM586.641935483871 158.6484908580119 585.6339354838709 155.26449085801192V141.70449085801192H589.401935483871V158.6484908580119Z M606.3962580645161 158.91249085801192Q604.5482580645161 158.91249085801192 602.9282580645161 158.24049085801192Q601.308258064516 157.5684908580119 600.1082580645161 156.3804908580119Q598.9082580645161 155.19249085801192 598.2242580645161 153.59649085801192Q597.5402580645161 152.00049085801191 597.5402580645161 150.1524908580119Q597.5402580645161 148.30449085801192 598.236258064516 146.7204908580119Q598.9322580645161 145.1364908580119 600.1682580645161 143.9484908580119Q601.4042580645161 142.7604908580119 603.0602580645161 142.1004908580119Q604.7162580645161 141.4404908580119 606.6122580645161 141.4404908580119Q608.7962580645161 141.4404908580119 610.5842580645161 142.23249085801191Q612.3722580645161 143.02449085801192 613.5482580645161 144.4164908580119L610.9802580645161 146.98449085801192Q610.1642580645162 145.9284908580119 609.0602580645161 145.4004908580119Q607.9562580645161 144.8724908580119 606.5642580645161 144.8724908580119Q605.0762580645161 144.8724908580119 603.900258064516 145.5324908580119Q602.7242580645161 146.19249085801192 602.064258064516 147.3804908580119Q601.4042580645161 148.5684908580119 601.4042580645161 150.1524908580119Q601.4042580645161 151.7364908580119 602.0522580645161 152.9364908580119Q602.7002580645161 154.1364908580119 603.8282580645161 154.8084908580119Q604.9562580645161 155.4804908580119 606.4202580645161 155.4804908580119Q607.9082580645161 155.4804908580119 608.9522580645162 154.9164908580119Q609.9962580645162 154.35249085801192 610.5602580645161 153.2844908580119Q611.1242580645161 152.21649085801192 611.1242580645161 150.68049085801192L613.6202580645161 152.3604908580119L606.0602580645161 152.24049085801192V149.04849085801192H614.9642580645161V149.6004908580119Q614.9642580645161 152.6484908580119 613.8722580645161 154.7244908580119Q612.7802580645161 156.8004908580119 610.8482580645161 157.8564908580119Q608.9162580645161 158.91249085801192 606.3962580645161 158.91249085801192Z M644.1312258064515 152.00049085801191Q643.1952258064515 152.00049085801191 642.5712258064516 151.3524908580119Q641.9472258064516 150.7044908580119 641.9472258064516 149.79249085801192Q641.9472258064516 148.8324908580119 642.5712258064516 148.1964908580119Q643.1952258064515 147.56049085801192 644.1312258064515 147.56049085801192Q645.0912258064515 147.56049085801192 645.7032258064514 148.1964908580119Q646.3152258064515 148.8324908580119 646.3152258064515 149.79249085801192Q646.3152258064515 150.7044908580119 645.7032258064514 151.3524908580119Q645.0912258064515 152.00049085801191 644.1312258064515 152.00049085801191Z M674.282193548387 158.6484908580119V141.70449085801192H678.050193548387V158.6484908580119ZM677.162193548387 158.6484908580119V155.3844908580119H686.450193548387V158.6484908580119ZM677.162193548387 151.5684908580119V148.42449085801192H685.6101935483871V151.5684908580119ZM677.162193548387 144.9444908580119V141.70449085801192H686.330193548387V144.9444908580119Z M694.7805161290322 158.6484908580119V141.70449085801192H698.5485161290322V158.6484908580119ZM697.6845161290322 158.6484908580119V155.3364908580119H706.0605161290323V158.6484908580119Z M713.9828387096774 158.6484908580119V141.70449085801192H717.7508387096774V158.6484908580119ZM716.8628387096774 158.6484908580119V155.3844908580119H726.1508387096774V158.6484908580119ZM716.8628387096774 151.5684908580119V148.42449085801192H725.3108387096775V151.5684908580119ZM716.8628387096774 144.9444908580119V141.70449085801192H726.0308387096774V144.9444908580119Z M742.5211612903227 158.91249085801192Q740.6251612903226 158.91249085801192 739.0051612903226 158.25249085801192Q737.3851612903226 157.5924908580119 736.1731612903226 156.3924908580119Q734.9611612903226 155.19249085801192 734.2891612903227 153.59649085801192Q733.6171612903227 152.00049085801191 733.6171612903227 150.1524908580119Q733.6171612903227 148.30449085801192 734.2891612903227 146.7084908580119Q734.9611612903226 145.1124908580119 736.1611612903225 143.9364908580119Q737.3611612903226 142.7604908580119 738.9811612903226 142.1004908580119Q740.6011612903226 141.4404908580119 742.4971612903227 141.4404908580119Q744.5131612903226 141.4404908580119 746.0851612903226 142.0884908580119Q747.6571612903226 142.7364908580119 748.8331612903227 143.86449085801192L746.3131612903227 146.4084908580119Q745.6411612903227 145.6884908580119 744.6931612903227 145.2804908580119Q743.7451612903226 144.8724908580119 742.4971612903227 144.8724908580119Q741.3931612903226 144.8724908580119 740.4691612903226 145.2444908580119Q739.5451612903227 145.6164908580119 738.8851612903227 146.3124908580119Q738.2251612903226 147.0084908580119 737.8531612903225 147.9924908580119Q737.4811612903226 148.9764908580119 737.4811612903226 150.1524908580119Q737.4811612903226 151.35249085801192 737.8531612903225 152.33649085801193Q738.2251612903226 153.3204908580119 738.8851612903227 154.0164908580119Q739.5451612903227 154.7124908580119 740.4691612903226 155.09649085801192Q741.3931612903226 155.4804908580119 742.4971612903227 155.4804908580119Q743.7931612903226 155.4804908580119 744.7531612903226 155.07249085801192Q745.7131612903227 154.6644908580119 746.4091612903226 153.9444908580119L748.9531612903227 156.48849085801191Q747.7291612903226 157.6164908580119 746.1571612903226 158.26449085801192Q744.5851612903226 158.91249085801192 742.5211612903227 158.91249085801192Z M760.9074838709678 158.6484908580119V141.9444908580119H764.6754838709678V158.6484908580119ZM755.6034838709678 144.9924908580119V141.70449085801192H769.9794838709678V144.9924908580119Z M780.7098064516128 151.6644908580119V148.8804908580119H784.2858064516129Q785.4138064516129 148.8804908580119 786.0258064516129 148.30449085801192Q786.637806451613 147.72849085801192 786.637806451613 146.74449085801191Q786.637806451613 145.8324908580119 786.0378064516129 145.23249085801191Q785.4378064516129 144.63249085801192 784.3098064516129 144.63249085801192H780.7098064516128V141.70449085801192H784.7418064516129Q786.421806451613 141.70449085801192 787.693806451613 142.34049085801192Q788.9658064516129 142.9764908580119 789.685806451613 144.1044908580119Q790.4058064516129 145.23249085801191 790.4058064516129 146.6964908580119Q790.4058064516129 148.1844908580119 789.685806451613 149.30049085801193Q788.9658064516129 150.4164908580119 787.6698064516129 151.0404908580119Q786.373806451613 151.6644908580119 784.6218064516129 151.6644908580119ZM777.8298064516129 158.6484908580119V141.70449085801192H781.5978064516129V158.6484908580119ZM787.0458064516129 158.6484908580119 781.7658064516129 151.35249085801192 785.2218064516129 150.4164908580119 791.5098064516129 158.6484908580119Z M799.216129032258 158.6484908580119V141.70449085801192H802.984129032258V158.6484908580119Z M820.0264516129032 158.91249085801192Q818.1304516129031 158.91249085801192 816.5104516129031 158.25249085801192Q814.8904516129031 157.5924908580119 813.6784516129031 156.3924908580119Q812.4664516129031 155.19249085801192 811.7944516129032 153.59649085801192Q811.1224516129032 152.00049085801191 811.1224516129032 150.1524908580119Q811.1224516129032 148.30449085801192 811.7944516129032 146.7084908580119Q812.4664516129031 145.1124908580119 813.6664516129031 143.9364908580119Q814.8664516129031 142.7604908580119 816.4864516129031 142.1004908580119Q818.1064516129031 141.4404908580119 820.0024516129032 141.4404908580119Q822.0184516129032 141.4404908580119 823.5904516129032 142.0884908580119Q825.1624516129032 142.7364908580119 826.3384516129032 143.86449085801192L823.8184516129032 146.4084908580119Q823.1464516129032 145.6884908580119 822.1984516129032 145.2804908580119Q821.2504516129031 144.8724908580119 820.0024516129032 144.8724908580119Q818.8984516129032 144.8724908580119 817.9744516129032 145.2444908580119Q817.0504516129032 145.6164908580119 816.3904516129032 146.3124908580119Q815.7304516129032 147.0084908580119 815.3584516129031 147.9924908580119Q814.9864516129031 148.9764908580119 814.9864516129031 150.1524908580119Q814.9864516129031 151.35249085801192 815.3584516129031 152.33649085801193Q815.7304516129032 153.3204908580119 816.3904516129032 154.0164908580119Q817.0504516129032 154.7124908580119 817.9744516129032 155.09649085801192Q818.8984516129032 155.4804908580119 820.0024516129032 155.4804908580119Q821.2984516129031 155.4804908580119 822.2584516129032 155.07249085801192Q823.2184516129032 154.6644908580119 823.9144516129031 153.9444908580119L826.4584516129032 156.48849085801191Q825.2344516129032 157.6164908580119 823.6624516129032 158.26449085801192Q822.0904516129032 158.91249085801192 820.0264516129032 158.91249085801192Z M832.9887741935484 158.6484908580119 839.7087741935484 141.70449085801192H843.1167741935483L849.7647741935483 158.6484908580119H845.7807741935484L840.6927741935483 144.58449085801192H842.0607741935484L836.9007741935484 158.6484908580119ZM836.8047741935484 155.5764908580119V152.5044908580119H846.0447741935484V155.5764908580119Z M857.4950967741935 158.6484908580119V141.70449085801192H861.2630967741935V158.6484908580119ZM860.3990967741935 158.6484908580119V155.3364908580119H868.7750967741936V158.6484908580119Z M897.846064516129 152.00049085801191Q896.910064516129 152.00049085801191 896.286064516129 151.3524908580119Q895.662064516129 150.7044908580119 895.662064516129 149.79249085801192Q895.662064516129 148.8324908580119 896.286064516129 148.1964908580119Q896.910064516129 147.56049085801192 897.846064516129 147.56049085801192Q898.8060645161289 147.56049085801192 899.4180645161289 148.1964908580119Q900.030064516129 148.8324908580119 900.030064516129 149.79249085801192Q900.030064516129 150.7044908580119 899.4180645161289 151.3524908580119Q898.8060645161289 152.00049085801191 897.846064516129 152.00049085801191Z M936.0370322580645 158.91249085801192Q934.1410322580645 158.91249085801192 932.5210322580645 158.25249085801192Q930.9010322580644 157.5924908580119 929.6890322580645 156.3924908580119Q928.4770322580645 155.19249085801192 927.8050322580646 153.59649085801192Q927.1330322580645 152.00049085801191 927.1330322580645 150.1524908580119Q927.1330322580645 148.30449085801192 927.8050322580646 146.7084908580119Q928.4770322580645 145.1124908580119 929.6770322580644 143.9364908580119Q930.8770322580644 142.7604908580119 932.4970322580645 142.1004908580119Q934.1170322580645 141.4404908580119 936.0130322580645 141.4404908580119Q938.0290322580645 141.4404908580119 939.6010322580645 142.0884908580119Q941.1730322580645 142.7364908580119 942.3490322580645 143.86449085801192L939.8290322580646 146.4084908580119Q939.1570322580645 145.6884908580119 938.2090322580646 145.2804908580119Q937.2610322580645 144.8724908580119 936.0130322580645 144.8724908580119Q934.9090322580645 144.8724908580119 933.9850322580645 145.2444908580119Q933.0610322580645 145.6164908580119 932.4010322580646 146.3124908580119Q931.7410322580645 147.0084908580119 931.3690322580644 147.9924908580119Q930.9970322580645 148.9764908580119 930.9970322580645 150.1524908580119Q930.9970322580645 151.35249085801192 931.3690322580644 152.33649085801193Q931.7410322580645 153.3204908580119 932.4010322580646 154.0164908580119Q933.0610322580645 154.7124908580119 933.9850322580645 155.09649085801192Q934.9090322580645 155.4804908580119 936.0130322580645 155.4804908580119Q937.3090322580645 155.4804908580119 938.2690322580645 155.07249085801192Q939.2290322580645 154.6644908580119 939.9250322580644 153.9444908580119L942.4690322580645 156.48849085801191Q941.2450322580645 157.6164908580119 939.6730322580645 158.26449085801192Q938.1010322580645 158.91249085801192 936.0370322580645 158.91249085801192Z M958.3113548387097 158.91249085801192Q956.4153548387096 158.91249085801192 954.7953548387096 158.25249085801192Q953.1753548387096 157.5924908580119 951.9633548387096 156.3924908580119Q950.7513548387096 155.19249085801192 950.0793548387096 153.59649085801192Q949.4073548387097 152.00049085801191 949.4073548387097 150.1524908580119Q949.4073548387097 148.30449085801192 950.0793548387096 146.7084908580119Q950.7513548387096 145.1124908580119 951.9513548387097 143.9364908580119Q953.1513548387097 142.7604908580119 954.7713548387096 142.1004908580119Q956.3913548387096 141.4404908580119 958.2873548387097 141.4404908580119Q960.3033548387097 141.4404908580119 961.8753548387097 142.0884908580119Q963.4473548387097 142.7364908580119 964.6233548387097 143.86449085801192L962.1033548387097 146.4084908580119Q961.4313548387097 145.6884908580119 960.4833548387096 145.2804908580119Q959.5353548387096 144.8724908580119 958.2873548387097 144.8724908580119Q957.1833548387096 144.8724908580119 956.2593548387097 145.2444908580119Q955.3353548387097 145.6164908580119 954.6753548387096 146.3124908580119Q954.0153548387096 147.0084908580119 953.6433548387097 147.9924908580119Q953.2713548387096 148.9764908580119 953.2713548387096 150.1524908580119Q953.2713548387096 151.35249085801192 953.6433548387097 152.33649085801193Q954.0153548387096 153.3204908580119 954.6753548387096 154.0164908580119Q955.3353548387097 154.7124908580119 956.2593548387097 155.09649085801192Q957.1833548387096 155.4804908580119 958.2873548387097 155.4804908580119Q959.5833548387096 155.4804908580119 960.5433548387097 155.07249085801192Q961.5033548387097 154.6644908580119 962.1993548387096 153.9444908580119L964.7433548387097 156.48849085801191Q963.5193548387097 157.6164908580119 961.9473548387097 158.26449085801192Q960.3753548387097 158.91249085801192 958.3113548387097 158.91249085801192Z M976.6976774193548 158.6484908580119V141.9444908580119H980.4656774193548V158.6484908580119ZM971.3936774193548 144.9924908580119V141.70449085801192H985.7696774193548V144.9924908580119Z M998.9 158.6484908580119 992.372 141.70449085801192H996.404L1001.372 155.4084908580119H999.7159999999999L1004.756 141.70449085801192H1008.7399999999999L1002.14 158.6484908580119Z" fill="#CBD5E1"/><rect x="783.96" y="87.95" width="225.14" height="5" fill="#F28C28"/></g></svg>